# xmcd CD database file
# Copyright (C) 1997 Ti Kan
# 
# Track frame offsets:
#     210
#     22470
#     38187
#     52450
#     70492
#     94802
#     114312
#     133245
#     149315
#     167740
#     185832
#     204672
# 
# Disc length: 3014 seconds
# 
# Revision: 1
# Processed by: cddbd v1.4b41PL1 Copyright (c) Steve Scherf et al.
# Submitted via: DiscPlay 4.0.3
# 
DISCID=c60bc40c
DTITLE=Greg "Fingers" Taylor - New Fingerprints
DYEAR=1900
DGENRE=
TTITLE0=Extra Mile
TTITLE1=Shim Sham Shimmy
TTITLE2=Cave Man Rock
TTITLE3=I'm Tired
TTITLE4=New Fingerprints
TTITLE5=Real Good Time
TTITLE6=Two Headed Woman
TTITLE7=Standing At The Crossroads Again
TTITLE8=Old Habits
TTITLE9=Waiting On Ice
TTITLE10=Little Girl
TTITLE11=Pork Juice
EXTD=
EXTT0=
EXTT1=
EXTT2=
EXTT3=
EXTT4=
EXTT5=
EXTT6=
EXTT7=
EXTT8=
EXTT9=
EXTT10=
EXTT11=
PLAYORDER=
